<?xml version="1.0" encoding="UTF-8"?>
<svg enable-background="new 0 0 428.74 362.1" version="1.1" viewBox="0 0 428.74 362.1" xml:space="preserve" xmlns="http://www.w3.org/2000/svg">
<style type="text/css">
	.st0{fill:#FFFFFF;}
</style>
<path class="st0" d="m428.2 42c-1.2-2.9-4.2-4.3-8.9-4.2-3.2 0.1-6.4 0.1-9.6 0.1h-4.1-15.1v-0.4-9.1-19.8c0-3.7-1-6.2-2.7-7.5-1.8-1.3-4.4-1.4-7.8-0.3-2 0.6-3.6 1.8-5 3.2l-18.3 18.3c-9.3 9.4-19 19-28.6 28.4-3.2 3.1-5 7.4-4.8 11.9v9c0 6-0.1 12.2 0.1 18.3 0.1 4.4-1.3 7.2-4.9 9.4l-0.3 0.2-0.2-0.2c-27.4-25-63.2-38.8-100.3-38.8-2.6 0-5.2 0.1-7.8 0.2-83.1 4-147.3 74.6-143.3 157.7 1.7 35 15.5 68.3 39.1 94.3 52.6 57.5 139.1 65.9 201.2 19.4 31.3-23.4 50.8-54.2 57.9-91.5 9.2-47.9-2.8-91.7-35.8-130.3l-0.2-0.3 0.3-0.3c4-4.6 4.1-4.6 9.8-4.6h7.9 19.4c4.2 0.2 8.2-1.5 11.1-4.5 4.7-5 9.7-9.9 14.5-14.7l33.4-33.4c3.2-3.4 4.3-7.2 3-10.5zm-74.7 165.9c2 74.9-56.8 137.3-131.7 139.8-1.7 0.1-3.4 0.1-5.2 0.1-74.2 0-134.8-59.4-136.3-133.6-0.8-36.9 13.3-72.5 39.2-98.8 25-25.7 59.3-40.4 95.2-40.8 34.6-0.6 68.3 11.9 92.5 34.1l0.3 0.3-27.3 27.2-0.3-0.2c-25.8-20.7-55.1-27.3-87.1-19.5-23.1 5.6-41.9 18.6-55.9 38.5-28.3 40.1-22.2 95.4 14.2 128.7 18 16.4 41.4 25.4 65.8 25.3 23 0 45.3-8 63-22.7 19.7-16.4 32.3-40.8 34.6-67 2.4-26-5.8-51.9-22.7-71.8l-0.3-0.3 26.9-27.1 0.3 0.3c21.3 22.6 34 54.4 34.8 87.5zm-142.2 9c2.4 2.1 8.1 1.9 10.3-0.3 4.9-4.9 9.8-9.8 14.6-14.7l6.2-6.3 0.3 0.4c7.9 9.2 5.9 26.8-4.1 36.9-11.9 12-31.2 12.2-43.3 0.4-12-11.9-12.2-31.2-0.4-43.3 9.9-10.1 25.4-12.1 37.5-4.8l0.5 0.3-5.3 5.3c-4.6 4.5-9.1 8.9-13.5 13.3l-0.6 0.6c-0.8 0.8-1.7 1.6-2.4 2.5-2.6 3.2-2.6 7.4 0.2 9.7zm35.3-45.2c-2 2.7-3.9 2.4-6.4 0.9-18.8-10.9-42.8-7.3-57.1 8.7-12.8 14.3-14.7 37.6-4.4 54.1 10.4 16.6 31 24.5 50.3 19.2 19.2-5 32.6-22.2 32.8-42 0.3-9.8-2.4-19.4-7.9-27.5l-0.2-0.3 26.7-26.6 0.3 0.3c11 11.3 18.3 28.8 19.6 46.8 1.1 15-1.4 37.5-19.3 59-14.3 17.5-35.1 28.3-57.5 30.2-2.2 0.2-4.4 0.3-6.6 0.3-46 0.1-83.4-37-83.5-83-0.1-20.9 7.7-41 21.8-56.4 15.5-17 36.3-26.9 58.5-27.7 20.8-0.8 41 6.4 56.8 19.9l0.4 0.3-21.4 20.9c-0.3 0.3-0.6 0.5-0.9 0.8-0.8 0.7-1.4 1.4-2 2.1zm156.5-117.2c-0.4 0.3-0.9 0.5-1.4 0.8-0.9 0.4-1.8 1-2.6 1.7l-12 12c-6.3 6.3-12.8 12.8-19.3 19.1-1.8 1.6-4 2.5-6.3 2.6-3.5 0.1-6.9 0.2-10.4 0.2h-6.3-6.7-0.4v-6.4c0-7.1 0-13.9 0.1-20.7 0-1 0.9-1.9 1.7-2.8l34.3-34.3 0.9-0.6c0.2-0.1 0.5-0.3 0.9-0.5l0.7-0.4v0.8 5.5 11.5c0.1 6.9 2.2 9.1 9.1 9.1h11.4 5.3l1.5 2.2-0.5 0.2z"/>
</svg>
