<?xml version="1.0" encoding="UTF-8"?>
<svg width="128mm" height="128mm" data-name="Camada 1" viewBox="0 0 362.83 362.83" xmlns="http://www.w3.org/2000/svg">
<path transform="translate(-.0038)" d="m173.71 0c-23.386 0.1282-50.732 7.42-75.027 20.006-44.446 23.027-76.756 61.724-90.975 108.96a180.94 180.94 0 0 0 15.289 140.48 14.964 14.964 0 0 1 1.1809 13.353c-6.3486 18.096-12.641 36.56-18.726 54.416l-4.3344 12.712c-1.1631 3.4066-1.8081 8.0694 1.7219 10.941 2.5077 2.04 5.2961 2.3184 9.3274 0.93q14.024-4.8278 28.061-9.615c13.521-4.6221 27.502-9.401 41.226-14.166a13.272 13.272 0 0 1 4.38-0.8014 12.074 12.074 0 0 1 6.046 1.7215c36.588 20.653 75.803 27.969 116.56 21.742a180.25 180.25 0 0 0 118.39-71.357c27.443-37.07 40.129-83.902 34.803-128.49-11.124-93.124-90.16-160.76-187.93-160.84zm124.85 297.75c-31.513 31.839-73.013 49.122-116.48 49.123a165.96 165.96 0 0 1-23.155-1.63 161.58 161.58 0 0 1-63.938-23.105 13.074 13.074 0 0 0-12.625-1.3845c-11.676 4.1889-23.607 8.2349-35.145 12.147q-6.6812 2.2652-13.359 4.5424c-1.1912 0.4072-2.3873 0.8-3.799 1.2623l-9.1407 3.0184 5.6372-16.634c2.613-7.716 5.1337-15.158 7.6661-22.596 0.6965-2.0447 1.37-4.1 2.0429-6.1539 1.6959-5.174 3.45-10.525 5.5716-15.694 1.9277-4.6958 1.4456-8.5347-1.7193-13.691a161.19 161.19 0 0 1-24.129-89.263 165.42 165.42 0 0 1 165.39-161.59c0.5788 0 1.154 3e-3 1.7345 0.0086a165.49 165.49 0 0 1 161.72 140.46c7.8797 52.046-8.9869 103.5-46.274 141.18z" fill="#fff"/>
<path transform="translate(-.0038)" d="m255.47 123.72a48.25 48.25 0 0 0-62.043-9.5459 79.008 79.008 0 0 0-9.5059 7.3364c-0.915 0.7832-1.8505 1.5845-2.7973 2.3731-0.3091-0.3262-0.6358-0.6719-0.961-1.0191a49.255 49.255 0 0 0-36.151-15.992h-0.0684a48.514 48.514 0 0 0-35.702 15.706 54.541 54.541 0 0 0 0.4907 74.605q32.99 34.8 65.992 69.589c2.1289 2.2432 4.3706 3.3809 6.6621 3.3809 2.2793 0 4.5019-1.1241 6.6064-3.3428q32.999-34.79 65.977-69.604a53.456 53.456 0 0 0 14.999-34.272c0.9063-14.693-3.6358-27.886-13.498-39.216zm-12.652 61.543c-14.52 15.578-29.449 31.27-43.886 46.445q-8.7847 9.2329-17.556 18.474l-16.176-17.057q-6.6959-7.0635-13.398-14.121c-10.196-10.742-20.739-21.851-31.073-32.807-14.631-15.513-14.358-39.138 0.6216-53.784a32.605 32.605 0 0 1 45.473 0.0893c1.6992 1.6768 3.3765 3.459 4.9985 5.1821 0.9932 1.0547 1.9859 2.11 2.9922 3.1514a9.1111 9.1111 0 0 0 6.5244 3.17h0.0279a9.1952 9.1952 0 0 0 6.5674-3.1523c1.039-1.0591 2.0547-2.146 3.0693-3.2334a76.558 76.558 0 0 1 6.9932-6.8848 32.278 32.278 0 0 1 24.916-7.2969 32.706 32.706 0 0 1 22.542 13.561c11.035 15.336 9.9756 34.731-2.6358 48.263z" fill="#fff"/>
</svg>
