<?xml version="1.0" encoding="UTF-8"?>
<svg width="127.67mm" height="127.71mm" data-name="Camada 1" viewBox="0 0 361.89 362.01" xmlns="http://www.w3.org/2000/svg">
<path transform="translate(-.4703 -.413)" d="m107.21 214.08c9.7652-9.8739 19.322-19.415 28.649-29.176 0.845-0.8844 0.6029-3.292 0.1981-4.8148q-11.382-42.822-22.944-85.597-5.0916-18.948-10.166-37.901c-1.81-6.7967-0.0811-9.7581 6.839-11.622q30.225-8.1387 60.468-16.213c1.2715-0.3411 2.5265-0.7438 4.0969-1.209 0-6.0574-0.0389-12.068 0.0105-18.078 0.054-6.5668 2.5189-9.0434 9.148-9.0458q84.73-0.0309 169.46-0.0038c7.073 0.0019 9.3827 2.4019 9.3836 9.6825q0.0136 100.62 5e-3 201.23 0 70.167-9e-4 140.33c0 8.66-1.9658 10.621-10.654 10.621-68.108 0.0025-136.22-0.1395-204.32 0.1253-12.963 0.05-23.988-3.42-33.162-12.588-0.9339-0.933-1.9725-1.763-2.9838-2.6154a5.66 5.66 0 0 0-1.0682-0.5c-2.8641 7.4969-7.6484 13.113-15.848 14.899a31.304 31.304 0 0 1-6.55 0.6526q-31.994 0.07-63.989 0.0186c-14.665-0.0274-23.283-8.6658-23.295-23.371q-0.0432-55.383-4e-4 -110.77c0.0106-14.7 8.5633-23.424 23.226-23.495 21.182-0.1029 42.365 0.0038 63.547-0.0424 7.9386-0.0172 14.621 2.6286 19.95 9.4726zm95.114-1.87v-5.7624q0-65.984 0.0076-131.97c0.0026-7.1487 1.5628-8.9319 8.3765-9.889q15.495-2.1768 17.559-17.87c0.7922-6.0718 3.1018-8.2078 9.2889-8.2205q30.896-0.0634 61.792 0.0034c5.9346 0.0143 8.2777 2.1752 9.0892 7.9547 1.5651 11.145 7.09 16.672 18.196 18.201 5.713 0.7869 7.6873 2.8872 7.749 8.6778 0.0881 8.2379 0.0668 16.478 0.01 24.716-0.0387 5.6325-2.6506 8.9286-6.942 8.9959-4.2885 0.0672-7.0671-3.2608-7.16-8.8227-0.0909-5.442-0.1489-10.891 0.0332-16.328 0.0922-2.7587-0.7038-4.0349-3.5178-4.9813a31.45 31.45 0 0 1-20.708-20.706c-0.8779-2.6254-1.9384-3.6958-4.8553-3.6662-15.299 0.1554-30.601 0.13-45.901 0.0178-2.6252-0.0194-3.813 0.76-4.6356 3.3493a31.141 31.141 0 0 1-20.088 20.742c-3.2039 1.14-4.24 2.4532-4.23 5.8307 0.1209 41.782 0.0769 83.565 0.09 125.35 0 1.4108 0.1554 2.8216 0.2422 4.2989h36.56c-20.277-15.382-24.479-35.578-11.09-51.939 12.476-15.245 34.173-16.96 48.951-3.5864 8.6582 7.8356 12.109 17.908 10.591 29.467-1.5295 11.643-8.24 19.917-19.285 26.304 24.912-3.3612 39.19 13.433 32.899 34.019l4.9237 0.3621v-5.292q0-35.31 0-70.619c0-1.1769-0.0618-2.3589 0.0239-3.53 0.3552-4.8526 3.2728-7.99 7.2514-7.86 4 0.1307 6.647 3.2938 6.85 8.2254 0.0484 1.175 0.0116 2.3537 0.0116 3.5306 0 26.923-0.0381 53.847 0.07 80.77a14.877 14.877 0 0 0 1.6177 6.6309c6.8386 12.978 1.6812 28.033-11.8 33.976-0.883 0.3892-1.7115 0.9017-2.6526 1.4034 3.6107 8.5834 3.1067 16.652-2.0472 24.132-5.1327 7.45-12.825 10.254-20.597 10.44v19.343h48.898v-333.11h-159.12v197.41zm-60.832-13.07c-9.7534 9.868-18.782 19.111-27.959 28.205a8.8616 8.8616 0 0 0-2.8519 6.9335c0.1 28.244 0.2488 56.492-0.0827 84.732-0.075 6.4018 1.0545 11.288 6.732 14.855a50.912 50.912 0 0 1 8.0144 6.8979c5.6085 5.4544 12.239 7.5183 20.031 7.49 42.367-0.1516 84.734-0.0714 127.1-0.0755a35.882 35.882 0 0 0 4.4082-0.0984 9.8075 9.8075 0 0 0 7.8361-14.123c-2.1057-4.1746-5.72-5.5586-10.209-5.5429-16.329 0.057-32.658 0.0289-48.987 0.0067a25.49 25.49 0 0 1-4.825-0.3148c-3.8515-0.7523-5.959-3.2259-5.7777-7.138 0.1709-3.6861 2.3455-5.9432 6.0361-6.479a33.932 33.932 0 0 1 4.8413-0.2q35.306-0.017 70.612-0.0106c8.68-0.0023 13.445-3.4808 13.509-9.8291 0.0651-6.4008-4.7387-10.024-13.309-10.029q-11.916-0.0065-23.832-0.0012-24.714-9e-4 -49.428 0.01c-4.1 0.0073-7.2965-1.3012-8.3133-5.63-1.1028-4.6952 2.4024-8.4164 8.0938-8.48 9.2666-0.1035 18.535-0.0307 27.803-0.0311 20.889-8e-4 41.779-0.0447 62.668 0.0311 4.8976 0.0176 8.7092-1.6234 10.661-6.2385 2.8679-6.7814-2.1743-13.437-10.209-13.451-29.569-0.0491-59.138-0.01-88.706-0.0456a19.418 19.418 0 0 1-5.6558-0.6058 6.3344 6.3344 0 0 1-4.7728-7.0423 6.4257 6.4257 0 0 1 5.7733-6.2673 29.4 29.4 0 0 1 4.84-0.1954q32.438-0.0166 64.875-0.0139c7.7322-0.0062 12.542-3.8663 12.534-9.974-0.0075-6.1145-4.8148-9.9361-12.542-9.968-1.3239-0.0055-2.648-0.0013-3.9719-0.0013q-64.875 0-129.75-0.0042c-6.7614-0.0013-8.41-1.2782-10.152-7.8753-1.6096-6.0992-3.1573-12.216-5.0349-19.497zm-93.004 19.634c-8.4254 0-16.197-0.0278-23.968 0.0079-7.6965 0.0354-9.9269 2.3094-9.9287 10.1q-0.0133 54.5-1e-3 109c0.0014 8.0845 2.1733 10.293 10.144 10.298q30.449 0.0173 60.898 0.0031c8.9833-0.0014 10.979-1.9643 10.979-10.803q0.0035-53.838-4e-3 -107.68a28.47 28.47 0 0 0-0.1438-4.4019c-0.5-3.1722-2.1819-5.9482-5.4814-6.054-9.33-0.2991-18.677-0.1047-28.352-0.1047v5.1113q0 35.965-0.01 71.931a31.075 31.075 0 0 1-0.2725 5.2736 6.4 6.4 0 0 1-6.7834 5.6986 6.3567 6.3567 0 0 1-6.6563-5.3241 24.897 24.897 0 0 1-0.4034-5.255q-0.0361-36.186-0.016-72.372zm125.04-6.5525c-0.53-2.1448-0.9175-3.85-1.3723-5.5372q-12.62-46.816-25.246-93.631c-1.8744-6.9666-0.6852-9.2789 5.8856-11.934 8.9647-3.623 13.431-11.447 12.047-21.104-0.9429-6.5813 0.3926-8.5944 6.72-10.838 1.1-0.39 2.6412-1.7011 2.666-2.6219 0.212-7.8874 0.1215-15.783 0.1215-24.222l-56.61 15.162c13.99 51.821 27.871 103.24 41.771 154.73zm94.796-11.263a19.606 19.606 0 1 0-19.661-19.646 19.749 19.749 0 0 0 19.661 19.646zm-94.148-98.464c-3.706 3.1765-7.267 5.9849-10.489 9.1393a5.36 5.36 0 0 0-1.3191 4.2942c1.7789 7.4169 3.888 14.755 5.89 22.118q2.6244 9.6537 5.2576 19.305l0.6611-0.1448z" fill="#fff"/>
<path transform="translate(-.4703 -.413)" d="m180.08 134.26a7.026 7.026 0 0 1-7.0078 7.0025 7.1055 7.1055 0 0 1-6.8773-6.7208 6.9466 6.9466 0 1 1 13.885-0.2817z" fill="#fff"/>
<path transform="translate(-.4703 -.413)" d="m180.07 326.64a7.0763 7.0763 0 0 1-7.1045 6.9193 6.999 6.999 0 0 1 0.1526-13.994 7.06 7.06 0 0 1 6.9519 7.0743z" fill="#fff"/>
</svg>
