<?xml version="1.0" encoding="UTF-8"?>
<svg enable-background="new 0 0 785.36 624.38" version="1.1" viewBox="0 0 785.36 624.38" xml:space="preserve" xmlns="http://www.w3.org/2000/svg">
<style type="text/css">
	.st0{fill:none;stroke:#FFFFFF;stroke-miterlimit:10;}
</style>
<polygon class="st0" points="3.79 -7.63 64.25 -13.57 3.51 65.39 -52.67 66.46"/>
<polygon class="st0" points="64.25 -13.57 133.19 -20.34 67.5 64.18 3.51 65.39"/>
<polygon class="st0" points="133.19 -20.34 212.55 -28.14 141.03 62.78 67.5 64.18"/>
<polygon class="st0" points="212.55 -28.14 304.88 -37.2 226.43 61.16 141.03 62.78"/>
<polygon class="st0" points="304.88 -37.2 413.63 -47.88 326.82 59.26 226.43 61.16"/>
<polygon class="st0" points="413.63 -47.88 543.62 -60.65 446.52 56.99 326.82 59.26"/>
<polygon class="st0" points="543.62 -60.65 701.74 -76.18 591.69 54.23 446.52 56.99"/>
<polygon class="st0" points="701.74 -76.18 898.22 -95.47 771.44 50.83 591.69 54.23"/>
<polygon class="st0" points="898.22 -95.47 1149 -120.1 999.79 46.5 771.44 50.83"/>
<polygon class="st0" points="1149 -120.1 1480.1 -152.61 1299.5 40.81 999.79 46.5"/>
<polygon class="st0" points="-52.67 66.46 3.51 65.39 -56.01 142.78 -108.07 139.15"/>
<polygon class="st0" points="3.51 65.39 67.5 64.18 3.2 146.89 -56.01 142.78"/>
<polygon class="st0" points="67.5 64.18 141.03 62.78 71.15 151.62 3.2 146.89"/>
<polygon class="st0" points="141.03 62.78 226.43 61.16 149.93 157.09 71.15 151.62"/>
<polygon class="st0" points="226.43 61.16 326.82 59.26 242.34 163.52 149.93 157.09"/>
<polygon class="st0" points="326.82 59.26 446.52 56.99 352.27 171.16 242.34 163.52"/>
<polygon class="st0" points="446.52 56.99 591.69 54.24 485.21 180.41 352.27 171.16"/>
<polygon class="st0" points="591.69 54.24 771.43 50.83 649.25 191.81 485.21 180.41"/>
<polygon class="st0" points="771.43 50.83 999.78 46.5 856.73 206.24 649.25 191.81"/>
<polygon class="st0" points="999.78 46.5 1299.5 40.81 1127.5 225.07 856.73 206.24"/>
<polygon class="st0" points="-108.07 139.16 -56.01 142.78 -114.36 218.63 -162.44 210.5"/>
<polygon class="st0" points="-56.01 142.78 3.2 146.89 -59.74 227.86 -114.36 218.63"/>
<polygon class="st0" points="3.2 146.89 71.15 151.62 2.85 238.44 -59.74 227.86"/>
<polygon class="st0" points="71.15 151.62 149.92 157.09 75.29 250.68 2.85 238.44"/>
<polygon class="st0" points="149.92 157.09 242.34 163.52 160.1 265.02 75.29 250.68"/>
<polygon class="st0" points="242.34 163.52 352.27 171.17 260.76 282.03 160.1 265.02"/>
<polygon class="st0" points="352.27 171.17 485.21 180.41 382.15 302.55 260.76 282.03"/>
<polygon class="st0" points="485.21 180.41 649.25 191.82 531.42 327.77 382.15 302.55"/>
<polygon class="st0" points="649.25 191.82 856.72 206.24 719.43 359.55 531.42 327.77"/>
<polygon class="st0" points="856.72 206.24 1127.5 225.07 963.5 400.8 719.43 359.55"/>
<polygon class="st0" points="-162.44 210.51 -114.36 218.63 -171.56 293 -215.81 280.54"/>
<polygon class="st0" points="-114.36 218.63 -59.74 227.86 -121.36 307.14 -171.56 293"/>
<polygon class="st0" points="-59.74 227.86 2.85 238.44 -63.92 323.32 -121.36 307.14"/>
<polygon class="st0" points="2.85 238.44 75.29 250.68 2.45 342.01 -63.92 323.32"/>
<polygon class="st0" points="75.29 250.68 160.1 265.02 80.01 363.86 2.45 342.01"/>
<polygon class="st0" points="160.1 265.02 260.75 282.03 171.86 389.72 80.01 363.86"/>
<polygon class="st0" points="260.75 282.03 382.15 302.55 282.33 420.84 171.86 389.72"/>
<polygon class="st0" points="382.15 302.55 531.42 327.78 417.72 458.97 282.33 420.84"/>
<polygon class="st0" points="531.42 327.78 719.43 359.55 587.56 506.81 417.72 458.97"/>
<polygon class="st0" points="719.43 359.55 963.5 400.8 806.89 568.58 587.56 506.81"/>
<polygon class="st0" points="-215.81 280.54 -171.56 293 -227.66 365.93 -268.21 349.29"/>
<polygon class="st0" points="-171.56 293 -121.36 307.14 -181.71 384.78 -227.66 365.93"/>
<polygon class="st0" points="-121.36 307.14 -63.92 323.32 -129.21 406.32 -181.71 384.78"/>
<polygon class="st0" points="-63.92 323.32 2.45 342.01 -68.65 431.16 -129.21 406.32"/>
<polygon class="st0" points="2.45 342.01 80.01 363.86 2 460.14 -68.65 431.16"/>
<polygon class="st0" points="80.01 363.86 171.86 389.73 85.47 494.39 2 460.14"/>
<polygon class="st0" points="171.86 389.73 282.32 420.84 185.6 535.46 85.47 494.39"/>
<polygon class="st0" points="282.32 420.84 417.72 458.97 307.94 585.65 185.6 535.46"/>
<polygon class="st0" points="417.72 458.97 587.56 506.81 460.79 648.36 307.94 585.65"/>
<polygon class="st0" points="587.56 506.81 806.89 568.58 657.21 728.93 460.79 648.36"/>
<polygon class="st0" points="-268.21 349.3 -227.66 365.93 -282.68 437.46 -319.65 416.81"/>
<polygon class="st0" points="-227.66 365.93 -181.72 384.78 -240.83 460.83 -282.68 437.46"/>
<polygon class="st0" points="-181.72 384.78 -129.22 406.32 -193.08 487.49 -240.83 460.83"/>
<polygon class="st0" points="-129.22 406.32 -68.65 431.16 -138.07 518.21 -193.08 487.49"/>
<polygon class="st0" points="-68.65 431.16 2 460.14 -74.03 553.97 -138.07 518.21"/>
<polygon class="st0" points="2 460.14 85.46 494.39 1.47 596.13 -74.03 553.97"/>
<polygon class="st0" points="85.46 494.39 185.6 535.46 91.82 646.59 1.47 596.13"/>
<polygon class="st0" points="185.6 535.46 307.94 585.65 201.87 708.04 91.82 646.59"/>
<polygon class="st0" points="307.94 585.65 460.79 648.36 338.84 784.53 201.87 708.04"/>
<polygon class="st0" points="460.79 648.36 657.21 728.94 514.01 882.35 338.84 784.53"/>
<polygon class="st0" points="-319.65 416.81 -282.68 437.46 -336.65 507.62 -370.18 483.11"/>
<polygon class="st0" points="-282.68 437.46 -240.83 460.83 -298.75 535.33 -336.65 507.62"/>
<polygon class="st0" points="-240.83 460.83 -193.08 487.49 -255.55 566.91 -298.75 535.33"/>
<polygon class="st0" points="-193.08 487.49 -138.07 518.21 -205.88 603.23 -255.55 566.91"/>
<polygon class="st0" points="-138.07 518.21 -74.03 553.97 -148.14 645.44 -205.88 603.23"/>
<polygon class="st0" points="-74.03 553.97 1.47 596.14 -80.21 695.1 -148.14 645.44"/>
<polygon class="st0" points="1.47 596.14 91.82 646.59 0.87 754.37 -80.21 695.1"/>
<polygon class="st0" points="91.82 646.59 201.87 708.04 99.33 826.36 0.87 754.37"/>
<polygon class="st0" points="201.87 708.04 338.84 784.53 221.44 915.63 99.33 826.36"/>
<polygon class="st0" points="338.84 784.53 514.01 882.35 376.88 1029.3 221.44 915.63"/>
<polygon class="st0" points="-370.18 483.11 -336.65 507.63 -389.61 576.47 -419.81 548.24"/>
<polygon class="st0" points="-336.65 507.63 -298.75 535.34 -355.5 608.35 -389.61 576.47"/>
<polygon class="st0" points="-298.75 535.34 -255.55 566.92 -316.69 644.63 -355.5 608.35"/>
<polygon class="st0" points="-255.55 566.92 -205.88 603.23 -272.12 686.29 -316.69 644.63"/>
<polygon class="st0" points="-205.88 603.23 -148.14 645.44 -220.41 734.63 -272.12 686.29"/>
<polygon class="st0" points="-148.14 645.44 -80.21 695.1 -159.69 791.38 -220.41 734.63"/>
<polygon class="st0" points="-80.21 695.1 0.87 754.38 -87.4 858.97 -159.69 791.38"/>
<polygon class="st0" points="0.87 754.38 99.33 826.36 0.15 940.8 -87.4 858.97"/>
<polygon class="st0" points="99.33 826.36 221.44 915.63 108.34 1041.9 0.15 940.8"/>
<polygon class="st0" points="221.44 915.63 376.87 1029.3 245.43 1170.1 108.34 1041.9"/>
<polygon class="st0" points="-419.81 548.24 -389.61 576.47 -441.58 644.03 -468.57 612.22"/>
<polygon class="st0" points="-389.61 576.47 -355.5 608.35 -411.13 679.91 -441.58 644.03"/>
<polygon class="st0" points="-355.5 608.35 -316.69 644.63 -376.53 720.7 -411.13 679.91"/>
<polygon class="st0" points="-316.69 644.63 -272.12 686.29 -336.86 767.46 -376.53 720.7"/>
<polygon class="st0" points="-272.12 686.29 -220.41 734.63 -290.9 821.63 -336.86 767.46"/>
<polygon class="st0" points="-220.41 734.63 -159.69 791.39 -237.05 885.1 -290.9 821.63"/>
<polygon class="st0" points="-159.69 791.39 -87.4 858.97 -173.08 960.51 -237.05 885.1"/>
<polygon class="st0" points="-87.4 858.97 0.15 940.8 -95.83 1051.6 -173.08 960.51"/>
<polygon class="st0" points="0.15 940.8 108.33 1041.9 -0.7 1163.7 -95.83 1051.6"/>
<polygon class="st0" points="108.33 1041.9 245.43 1170.1 119.33 1305.2 -0.7 1163.7"/>
<polygon class="st0" points="-468.57 612.22 -441.58 644.03 -492.58 710.34 -516.47 675.08"/>
<polygon class="st0" points="-441.58 644.03 -411.13 679.92 -465.67 750.07 -492.58 710.34"/>
<polygon class="st0" points="-411.13 679.92 -376.53 720.7 -435.12 795.17 -465.67 750.07"/>
<polygon class="st0" points="-376.53 720.7 -336.86 767.47 -400.14 846.81 -435.12 795.17"/>
<polygon class="st0" points="-336.86 767.47 -290.9 821.63 -359.69 906.52 -400.14 846.81"/>
<polygon class="st0" points="-290.9 821.63 -237.05 885.1 -312.38 976.35 -359.69 906.52"/>
<polygon class="st0" points="-237.05 885.1 -173.08 960.51 -256.3 1059.1 -312.38 976.35"/>
<polygon class="st0" points="-173.08 960.51 -95.84 1051.6 -188.78 1158.8 -256.3 1059.1"/>
<polygon class="st0" points="-95.84 1051.6 -0.71 1163.7 -105.89 1281.2 -188.78 1158.8"/>
<polygon class="st0" points="-0.71 1163.7 119.33 1305.2 -1.75 1434.9 -105.89 1281.2"/>
</svg>
