<svg id="Camada_1" data-name="Camada 1" xmlns="http://www.w3.org/2000/svg" width="93.3379mm" height="34.9991mm" viewBox="0 0 264.58 99.21"><path d="M8.04,48.22c0-4.35,2.23-6.78,14.3-10.67-.19-5.75-1.62-7.16-3.95-7.16-2.18,0-3.44,1.08-3.44,2.57,0,1.12.74,1.68.74,3.27A3.2741,3.2741,0,0,1,12.3,39.5a3.2007,3.2007,0,0,1-3.11-3.42c0-3.7,4.92-6.92,10.82-6.92,5.94,0,9.19,2.34,9.19,7.81v10.1c0,2.43,1.07,3.7,2.18,3.7a1.9775,1.9775,0,0,0,1.21-.47l.65.66a6.3492,6.3492,0,0,1-5.48,2.85,5.5513,5.5513,0,0,1-5.01-3.6,10.6192,10.6192,0,0,1-8.26,3.84A6.1813,6.1813,0,0,1,8.04,48.22Zm14.39.88a6.1174,6.1174,0,0,1-.14-1.31l.05-8.89v-.23c-5.8,1.87-7.38,4.49-7.38,7.44,0,2.57,1.25,4.35,3.71,4.35A5.6417,5.6417,0,0,0,22.43,49.1Z" transform="translate(-8.04 -3.99)" fill="#fff"/><path d="M34.17,56.64c0-1.92,1.02-3.23,4.18-4.4-1.95-.75-3.3-2.01-3.3-4.3,0-1.87.88-2.95,4.46-4.35a6.6579,6.6579,0,0,1-4.13-6.64c0-4.07,4.08-7.77,10.77-7.77,4.36,0,7.19,1.12,8.68,2.76,1.02-2.11,2.69-3.46,4.69-3.46a3.2776,3.2776,0,0,1,3.53,3.46,2.92,2.92,0,0,1-2.88,3.18c-2.55,0-2.37-2.34-3.53-2.34a2.1279,2.1279,0,0,0-1.11.37,7.937,7.937,0,0,1,.98,3.88c0,4.54-3.9,7.63-10.77,7.63a18.6928,18.6928,0,0,1-4.22-.42c-.6.37-.84.66-.84,1.22,0,2.76,18.1-.19,18.1,9.22,0,4.02-4.18,7.3-12.86,7.3C37.84,61.97,34.17,59.54,34.17,56.64Zm18.57.28c0-3.65-6.82-2.95-11.98-4.12a3.8585,3.8585,0,0,0-1.25,3.18c0,2.67,2.92,4.87,6.82,4.87C50.46,60.85,52.74,58.88,52.74,56.92Zm-3.2-18.44c.19-5.15-1.21-8.19-3.71-8.19-1.81,0-3.34,1.73-3.48,5.05-.19,5.61,1.67,8.19,3.76,8.19C47.91,43.54,49.44,41.57,49.54,38.48Z" transform="translate(-8.04 -3.99)" fill="#fff"/><path d="M63.28,41.57c0-7.25,4.83-12.4,11.14-12.4,6.13,0,10.21,3.93,9.89,10.67-4.97.23-9.47.51-13.93.75.46,6.27,3.34,9.26,8.17,9.26a7.43,7.43,0,0,0,5.66-2.39l.56.42c-1.3,3.65-5.29,6.17-9.79,6.17C68.29,54.06,63.28,48.59,63.28,41.57ZM73.39,20.01h1.02l4.73,5.75H75.15l-2.46-3.18-2.41,3.18H68.93Zm4.69,18.94c-.19-6.18-1.81-8.56-3.95-8.56-2.41,0-3.76,2.48-3.81,8.28v.75C73.21,39.28,75.62,39.09,78.08,38.95Z" transform="translate(-8.04 -3.99)" fill="#fff"/><path d="M86.86,52.47c2.04-.33,3.48-1.31,3.48-4.91V38.39c0-1.92-1.11-2.95-3.48-3.13v-.98a34.68,34.68,0,0,0,9.38-5.43l.84.51v4.16a13.2323,13.2323,0,0,1,9.24-4.35,6.5825,6.5825,0,0,1,6.73,6.97V46.62c0,4.21,1.21,5.52,3.48,5.85v1.12c-4.97-.14-8.91-.14-13.41,0V52.47c1.58-.33,3.02-1.31,3.02-4.91V37.55c0-3.6-1.21-5.24-3.3-5.24a7.7184,7.7184,0,0,0-5.57,2.57V46.62c0,4.21,1.21,5.52,3.02,5.85v1.12c-4.5-.14-8.45-.14-13.41,0V52.47Z" transform="translate(-8.04 -3.99)" fill="#fff"/><path d="M118.37,41.57c0-7.44,4.64-12.35,11.74-12.4,5.76-.05,9.65,2.81,9.65,6.32a3.4043,3.4043,0,0,1-3.53,3.56,3.49,3.49,0,0,1-3.53-3.7c0-1.17.6-1.78.6-2.57,0-1.5-1.16-2.43-3.16-2.43-2.55,0-4.69,2.67-4.73,8.8-.05,7.02,3.16,10.71,8.22,10.71a7.05,7.05,0,0,0,5.57-2.48l.74.51c-1.44,3.74-5.48,6.17-9.89,6.17C123.25,54.06,118.37,48.78,118.37,41.57Z" transform="translate(-8.04 -3.99)" fill="#fff"/><path d="M142.04,52.47c2.04-.33,3.48-1.31,3.48-4.91V38.39c0-1.92-1.11-2.95-3.48-3.13v-.98a35.5186,35.5186,0,0,0,9.56-5.43l.84.51V46.62c0,4.21,1.21,5.52,3.02,5.85v1.12c-4.5-.14-8.45-.14-13.41,0V52.47Zm2.51-29.66a3.7752,3.7752,0,0,1,4.13-4.02,3.9265,3.9265,0,0,1,4.13,4.02,3.8651,3.8651,0,0,1-4.13,4.02A3.9213,3.9213,0,0,1,144.55,22.81Z" transform="translate(-8.04 -3.99)" fill="#fff"/><path d="M158.24,48.22c0-4.35,2.23-6.78,14.3-10.67-.19-5.75-1.62-7.16-3.95-7.16-2.18,0-3.43,1.08-3.43,2.57,0,1.12.74,1.68.74,3.27a3.2741,3.2741,0,0,1-3.39,3.27,3.2007,3.2007,0,0,1-3.11-3.42c0-3.7,4.92-6.92,10.82-6.92,5.94,0,9.19,2.34,9.19,7.81v10.1c0,2.43,1.07,3.7,2.18,3.7a1.9775,1.9775,0,0,0,1.21-.47l.65.66a6.3492,6.3492,0,0,1-5.48,2.85,5.5513,5.5513,0,0,1-5.01-3.6,10.6192,10.6192,0,0,1-8.26,3.84A6.1908,6.1908,0,0,1,158.24,48.22Zm14.39.88a6.1174,6.1174,0,0,1-.14-1.31l.05-8.89v-.23c-5.8,1.87-7.38,4.49-7.38,7.44,0,2.57,1.25,4.35,3.71,4.35A5.6417,5.6417,0,0,0,172.63,49.1Z" transform="translate(-8.04 -3.99)" fill="#fff"/><path d="M79.32,84.54c-.58,2.27-3.06,5.89-8.63,5.89-5.44,0-9.85-4.94-9.85-10.92,0-5.35,4-10.83,11.29-10.83,3.82,0,5.44,1.68,6.03,2.36a2.6594,2.6594,0,0,1,.45,2.63,2.6013,2.6013,0,0,1-3.28,1.5,2.5055,2.5055,0,0,1-1.39-3.26,2.24,2.24,0,0,1,1.3-1.4c.4-.14-.72-1.13-3.1-1.13-1.71,0-6.34,1.4-6.34,9.52,0,5.48,2.97,7.79,6.12,8.29,2.79.41,5.94-1.31,6.88-2.95Z" transform="translate(-8.04 -3.99)" fill="#fff"/><path d="M90.78,90.02H82.37v-.68c1.71-.5,1.8-1.86,1.8-4.17V61.29c0-1.59-.4-2.27-2.25-2.76v-.68l7.02-1.45V85.18c0,2.49.22,3.76,1.84,4.17Z" transform="translate(-8.04 -3.99)" fill="#fff"/><path d="M99.68,58.11,104,59.42,93.21,65.5h-1.3Zm2.43,31.91H93.7v-.68c1.71-.54,1.8-1.86,1.8-4.17V73.84c0-1.54-.4-2.18-2.25-2.95v-.68l7.01-1.54v16.5c0,2.49.23,3.72,1.84,4.17v.68Z" transform="translate(-8.04 -3.99)" fill="#fff"/><path d="M126.25,90.02h-8.41v-.68c1.71-.5,1.8-1.86,1.8-4.17V75.88c0-2.63-1.53-4.44-4.14-4.44a4.7615,4.7615,0,0,0-4.23,3.81v9.97c0,2.49.27,3.67,1.84,4.12v.68h-8.36v-.68c1.71-.5,1.75-1.81,1.75-4.12V73.79c0-1.59-.4-2.13-2.25-2.9v-.68l7.02-1.54v4.8a8.202,8.202,0,0,1,7.19-4.8c3.55,0,5.94,1.59,5.94,7.07v9.43c0,2.49.22,3.76,1.84,4.17v.68Z" transform="translate(-8.04 -3.99)" fill="#fff"/><path d="M137.27,90.02h-8.36v-.68c1.71-.54,1.8-1.86,1.8-4.17V73.84c0-1.54-.45-2.18-2.29-2.95v-.68l7.01-1.54v16.5c0,2.49.23,3.72,1.84,4.17Zm-7.33-27.74a2.6765,2.6765,0,0,1,2.65-2.72,2.753,2.753,0,0,1,2.74,2.72,2.71,2.71,0,0,1-2.74,2.67A2.6337,2.6337,0,0,1,129.94,62.28Z" transform="translate(-8.04 -3.99)" fill="#fff"/><path d="M159.48,84.54c-.58,2.27-3.06,5.89-8.63,5.89-5.44,0-9.85-4.94-9.85-10.92,0-5.35,4-10.83,11.29-10.83,3.82,0,5.44,1.68,6.03,2.36a2.6594,2.6594,0,0,1,.45,2.63,2.6013,2.6013,0,0,1-3.28,1.5,2.5055,2.5055,0,0,1-1.39-3.26,2.215,2.215,0,0,1,1.3-1.4c.4-.14-.72-1.13-3.1-1.13-1.71,0-6.34,1.4-6.34,9.52,0,5.48,2.97,7.79,6.12,8.29,2.79.41,5.94-1.31,6.88-2.95Z" transform="translate(-8.04 -3.99)" fill="#fff"/><path d="M183.35,87.3a4.7494,4.7494,0,0,1-4.72,3.13,4.1121,4.1121,0,0,1-4.14-3.76c-.63,2.08-3.28,3.76-6.43,3.76,0,0-5.17,0-5.17-4.62,0-4.76,3.78-5.48,11.56-7.48V75.61c0-4.67-2.43-7.16-5.8-5.53-1.57.82-1.8,1.63-1.53,1.68a2.1746,2.1746,0,0,1,1.53.91,2.3285,2.3285,0,1,1-3.78,2.72,2.3972,2.3972,0,0,1-.18-2.49,7.6269,7.6269,0,0,1,3.51-3.31,9.2218,9.2218,0,0,1,4.27-.91c5.4,0,6.83,3.72,6.83,9.06v7.25s0,2.99,2.11,2.99a1.3422,1.3422,0,0,0,1.26-.95ZM167.8,84.76a3.1945,3.1945,0,0,0,3.24,3.26,3.6755,3.6755,0,0,0,3.42-2.49V79.09C169.64,80.19,167.8,82.22,167.8,84.76Z" transform="translate(-8.04 -3.99)" fill="#fff"/><circle cx="227.35" cy="39.75" r="35.76" transform="translate(140.717 252.7651) rotate(-80.0084)" fill="#00a7c9" opacity="0.82" style="isolation:isolate"/><circle cx="228.82" cy="63.45" r="35.76" fill="#00a7a3" opacity="0.7" style="isolation:isolate"/><path d="M269.04,77.37c-.96,4.25-6.44,9.45-14.38,9.45,0,0-11.37.14-12.6-11.37-1.92,6.3-10,11.37-19.59,11.37,0,0-15.75,0-15.75-13.97,0-14.38,11.51-16.58,35.21-22.6V42.03c0-14.11-7.4-21.65-17.67-16.71-4.79,2.47-5.48,4.93-4.66,5.07a6.67,6.67,0,0,1,4.66,2.74,7.0483,7.0483,0,0,1-1.64,9.86,7.14,7.14,0,0,1-10.41-9.18c1.23-2.19,3.29-6.03,10.69-10a28.1089,28.1089,0,0,1,13.01-2.74c16.44,0,20.82,11.23,20.82,27.4V70.39s0,9.04,6.44,9.04a4.0965,4.0965,0,0,0,3.84-2.88ZM221.65,69.7c0,1.92,1.23,9.86,9.86,9.86a11.1233,11.1233,0,0,0,10.41-7.53V52.58C227.26,55.86,221.65,62.03,221.65,69.7Z" transform="translate(-8.04 -3.99)" fill="#fff"/></svg>