<?xml version="1.0" encoding="utf-8"?>
<!-- Generator: Adobe Illustrator 25.0.1, SVG Export Plug-In . SVG Version: 6.00 Build 0)  -->
<svg version="1.1" id="Camada_1" xmlns="http://www.w3.org/2000/svg" xmlns:xlink="http://www.w3.org/1999/xlink" x="0px" y="0px"
	 viewBox="0 0 361.34 361.16" style="enable-background:new 0 0 361.34 361.16;" xml:space="preserve">
<style type="text/css">
	.st0{fill:#00A499;}
</style>
<path class="st0" d="M360.68,273.55c-4.17,0-7.12-0.07-10.06,0.01c-5.11,0.14-9.28,2.08-11.27,7.04c-1.97,4.89-0.83,9.31,3.03,12.9
	c2.38,2.21,4.94,4.23,8.22,7c-4.81,4.92-8.9,8.99-12.86,13.18c-3.83,4.05-7.53,8.23-11.87,12.99c-3.54-3.33-6.02-5.72-8.56-8.04
	c-3.68-3.37-7.59-5.43-12.81-3.13c-5.04,2.22-6.82,6.25-7.06,11.27c-0.15,3.21-0.03,6.43-0.03,10.18h-34.8
	c-0.16-3.59-0.26-7.03-0.49-10.47c-0.33-5.05-2.2-9.01-7.3-11.09c-5.26-2.14-9.14,0.03-12.77,3.43c-2.33,2.19-4.59,4.46-7.1,6.9
	l-6.33-4.44c-0.47,0.7-0.86,1.45-1.18,2.23c-1.41,5.18-4.81,9.59-9.46,12.26c-2.35,1.66-4.28,3.85-5.63,6.39
	c-14.87,25.29-48.05,25.3-62.92,0.02c-1.4-2.5-3.3-4.68-5.59-6.41c-10.06-7.08-12.06-13.67-7.1-24.94c0.35-0.81,0.63-1.64,0.9-2.36
	c-1.63-4.19-3.21-8.26-5.07-13.04c-9.78,9.79-19.49,19.24-28.87,29c-4.27,4.46-9.52,7.87-15.33,9.96
	c-21.81,8.15-43.53,16.53-65.16,25.15c-6.95,2.78-12.78,1.78-17.94-3.05c-5.31-4.96-6.18-11.2-3.63-17.89
	c9.05-23.69,18.08-47.38,27.35-70.98c1.13-2.88,3.43-5.47,5.66-7.72c13.48-13.67,27.05-27.24,40.72-40.73
	c2.08-2.06,4.81-3.46,6.89-4.93c-6.42-17.33-7.95-33.31-5.2-50.36c-3.08-0.2-5.64-0.49-8.2-0.5c-10.63-0.05-21.27,0.06-31.9-0.05
	C19.03,163.15,4.87,152.41,1,136.2c-3.82-15.98,3.59-31.31,19.26-39.84c1.27-0.69,2.5-1.46,3.64-2.13
	C22.63,58.2,34.98,36.46,62.1,26.67c26.55-9.58,50.64-0.63,71.02,26.27c6.82,0,13.6-0.69,20.19,0.15
	c12.27,1.56,22.21,7.85,29.56,17.73c2.72,3.65,5.63,5.53,10.16,5.83c4.68,0.31,9.58,0.72,13.88,2.38c5.49,2.12,8.59,0.08,12.24-3.62
	c20.32-20.61,40.86-41.01,61.33-61.46C293.64,0.81,309.72-2.76,327,2.03c34.25,9.48,45.72,51.26,21.35,77.31
	c-14.32,15.31-29.53,29.78-44.34,44.62c-6.68,6.69-13.27,13.46-20.09,20.01c-2.67,2.56-3.22,4.88-2.2,8.58
	c1.88,6.79,2.86,13.82,4.29,21.16l11.24,1.24c0,3.69-0.13,7.15,0.03,10.6c0.25,5.09,2.33,9.29,7.3,11.15
	c4.9,1.84,9.38,0.54,12.81-3.43c2.11-2.45,3.86-5.22,6.06-8.26c9.13,10.05,16.8,18.48,24.84,27.33c-1.37,1.42-4.06,4.12-6.64,6.92
	c-3.29,3.58-4.32,7.76-2.34,12.27c1.64,4.3,5.9,7.01,10.48,6.67c3.21-0.07,6.43-0.01,10.93-0.01
	C361.14,250.24,361.19,261.72,360.68,273.55z M163.62,133.6c-0.64-9.88,3.46-17.24,10.68-22.3c5.23-3.66,6.62-8.16,5.81-13.56
	c-0.77-5.16-1.84-10.56-4.15-15.17c-6.65-13.3-22.45-20.62-36.41-17.64c-15.18,3.23-25.62,14.24-27.06,28.54
	c12.51,7.98,15.46,12.32,15.2,22.9h-10.52c-2.01-5.92-4.88-11.07-11.97-11.25c-7.71-0.19-9.96,6.15-12.69,11.3H82.07
	c-0.24-12.66,7.34-18.89,15.5-22.43c3.56-7.97,5.67-14.86,9.47-20.64c3.78-5.75,9.26-10.38,13.98-15.49
	c-11.84-21.31-38.32-26.93-57.7-18.74c-16,6.76-33.28,27.93-25.88,53.01c24.16,8.12,34.22,19.45,31.47,35.74h-9.86
	c-0.78-2.66-1.37-5.21-2.27-7.66c-3.58-9.73-13.6-16.09-23.62-15.09c-10.66,1.09-19.16,9.39-20.5,20.02
	c-1.2,11.18,4.42,20.84,14.83,24.34c3.93,1.18,8.03,1.74,12.14,1.64c49.31,0.11,98.62,0.13,147.93,0.07c1.77,0,3.55,0.09,5.31-0.06
	c9.27-0.74,16.25-7.65,16.69-16.45c0.39-7.67-5.3-15.43-12.62-17.21c-9.12-2.23-17.06,1.89-20.73,10.78
	c-0.75,1.82-1.44,3.67-2.1,5.35L163.62,133.6z M163.57,163.37c0,5.87-0.14,10.3,0.03,14.72c0.24,6.09,1.86,7.69,8.03,8.09
	c2.94,0.19,5.91,0.05,8.86,0.05c12.11,0.03,24.23-0.21,36.33,0.18c8.66,0.21,15.74,6.97,16.35,15.61c0.78,8.86-4.21,16.22-13,18.55
	c-3.15,0.74-6.38,1.09-9.61,1.03c-15.66,0.1-31.31,0.04-46.97,0.05c-2.07,0-4.14,0.03-6.2,0.12c-3.17,0.15-5.42,2.23-4.99,4.98
	c0.62,2.42,2.28,4.45,4.55,5.51c2.6,0.99,5.82,0.29,8.76,0.45c2.93,0.15,5.98,0,8.75,0.8c7.65,2.22,12.15,8.68,12.31,17.45
	c0.16,9.05,0.04,18.11,0.04,27.53h25.68c4.87-7.22,8.9-14.13,13.86-20.29c4.98-6.19,10.89-11.62,16.37-17.41
	c5.07-5.36,10.34-10.56,15.13-16.15c10.59-12.37,15.58-26.9,15.77-43.13c0.5-43.65-31.07-82.97-73.83-91.84
	c-2.39-0.49-4.92-0.3-7.75-0.45c0.28,5.61,0.52,10.25,0.77,15.17c2.34,0.36,4.38,0.51,6.33,0.99c19.64,4.87,28.84,27.38,17.97,44.18
	c-5.89,9.1-14.54,13.6-25.33,13.79C182.68,163.49,173.59,163.37,163.57,163.37L163.57,163.37z M174.5,278.59
	c0-9.49,0.15-18.02-0.05-26.54c-0.14-5.92-1.35-6.9-7.57-7.18c-3.24-0.14-6.51,0.14-9.74-0.12c-8.87-0.71-15.44-6.43-16.8-14.38
	c-1.94-11.32,5.44-20.61,17.1-20.78c17.42-0.26,34.85-0.06,52.28-0.11c2.35,0.12,4.71-0.04,7.03-0.48c2.88-0.72,4.84-3.06,3.9-5.93
	c-0.9-2.01-2.57-3.58-4.62-4.36c-2.09-0.79-4.65-0.38-7.01-0.39c-12.7-0.03-25.41,0.23-38.1-0.1c-12.87-0.34-19.34-7.28-19.52-20.14
	c-0.06-4.64-0.01-9.28-0.01-14.08H89.95c-5.13,27.56,0.36,46.68,18.82,66.45c2.42,2.59,4.89,5.13,7.43,7.6
	c12.52,12.13,24.94,24.33,32.07,40.54H174.5z M285.14,324.93c1.07-9.81,5.71-16.91,14.64-20.74c9.39-4.03,17.73-0.9,25.76,4.53
	l6.94-7.43c-6.31-7.92-7.92-16.24-4.5-25.27c3.63-9.58,11.96-13.15,21.36-15.19c0-2.47,0.05-4.22-0.02-5.97
	c-0.04-1.15-0.24-2.29-0.36-3.34c-24.53-5.87-27.64-25.49-17.19-40.61l-5.39-6.73c-6.13,2.06-10.96,4.22-16.02,5.25
	c-5.34,1.02-10.85-0.46-14.97-4c-3.83-3.16-6.89-7.24-10.23-10.84c-1.96,6.78-3.82,13.21-5.68,19.66
	c26.78,5.22,41.32,20.01,41.31,41.88c0,19.08-14.17,36.49-32.58,40.04c-22.31,4.3-39.47-6.94-49.82-33.43
	c-2.98,3.83-5.85,7.08-8.23,10.66c-3.88,5.85-8.07,11.78-3.07,19.19c0.52,1.08,0.66,2.3,0.41,3.46c-0.96,6.27,2.43,9.72,7.36,12.49
	c7.85-6.04,16.06-8.06,25.12-4.23c8.99,3.8,13.18,11.26,14.76,20.62L285.14,324.93z M332.44,77.4
	c12.98-8.54,19.47-23.99,15.42-39.47c-3.4-12.99-14.93-23.43-27.96-25.2c-15.61-2.13-28.74,4.11-35.8,16.24L332.44,77.4z
	 M64.02,285.78c13.51-13.47,27.32-27.23,41.17-41.03l-16.67-19.19l-42.95,42.96L64.02,285.78z M133.33,276.29
	c-4.49-7.73-10.21-14.68-16.94-20.57l-42.25,42.15l18.83,18.73L133.33,276.29z M80.38,324.38c-14.64-14.64-28.88-28.88-43.45-43.44
	c-4.35,11.23-8.98,23.19-14.18,36.6c6.31,5.86,12.84,11.77,19.19,17.87c2.3,2.21,4.49,2.18,7.21,1.1
	C59.79,332.31,70.47,328.22,80.38,324.38z M279.76,284.7c16.2-0.01,29.43-13.51,28.82-29.42c-0.61-16.07-14.13-28.61-30.2-28
	c-0.05,0-0.11,0-0.16,0.01c-4.3,0.22-7.9,1.4-10.81,4.95c-3.74,4.55-7.75,8.88-12.01,12.95c-3.52,3.37-4.73,7.29-4.53,11.92
	C251.55,272.56,264.29,284.73,279.76,284.7z M286.37,85.96l-26.15,25.72c4.95,7.27,10.2,14.98,14.74,21.64
	c9.98-9.79,19.8-19.42,29.57-29L286.37,85.96z M257.46,57.43l-29.21,29.2l21.41,14.32c8.99-8.75,17.58-17.1,26.33-25.62
	L257.46,57.43z M266.62,45.93C283,62.35,299.1,78.48,315.1,94.53c2.14-1.98,4.83-4.46,6.76-6.24l-49.24-49.32L266.62,45.93z
	 M181.21,302.08v-0.05c9.4,0,18.81,0.03,28.21-0.02c3.42-0.02,5.7-1.63,5.67-5.26c-0.03-3.53-2.29-5.18-5.61-5.58
	c-0.59-0.05-1.17-0.07-1.76-0.06c-17.93,0-35.85-0.07-53.78,0.04c-4.82,0.03-7.5,2.26-7.59,5.54c-0.09,3.39,2.26,5.25,7.53,5.33
	C162.99,302.19,172.1,302.08,181.21,302.08z M180.23,325.45c8.81,0,17.63,0.1,26.44-0.03c6.18-0.09,8.44-1.66,8.48-5.32
	c0.04-3.7-2.53-5.53-8.2-5.84c-0.29-0.02-0.59-0.01-0.88-0.01c-16.74,0-33.49-0.05-50.23,0.06c-2.26,0.01-4.85,0.25-6.67,1.38
	c-1.58,1.18-2.51,3.04-2.5,5.01c0.2,1.56,2.1,3.42,3.72,4.16c1.75,0.8,4.02,0.57,6.07,0.58
	C164.37,325.49,172.3,325.46,180.23,325.45z M199.73,337.5c-7.27,0-13.43-0.21-19.57,0.06c-5.87,0.26-11.94-1.24-17.97,1.13
	C172.97,352.33,190.49,352.05,199.73,337.5L199.73,337.5z M18.02,330.01c-1.79,4.67-3.63,8.64-4.82,12.8
	c-1.22,4.25,0.81,6.36,5.07,5.22c4.34-1.17,8.49-3.06,13.47-4.91L18.02,330.01z"/>
<path class="st0" d="M297.19,255.87c0.09,9.88-7.09,17.38-16.87,17.62c-10.16,0.25-18.09-7.3-18.16-17.31
	c-0.07-9.82,8.2-18.14,17.84-17.93C289.55,238.51,297.17,246.32,297.19,255.87z M287.14,255.57c-3.61-2.24-5.88-4.72-8.03-4.62
	c-1.66,0.07-4.01,3.17-4.55,5.3c-0.74,2.88,2.76,5.76,5.77,4.77C282.4,260.35,284,258.18,287.14,255.57L287.14,255.57z"/>
</svg>
