<?xml version="1.0" encoding="utf-8"?>
<!-- Generator: Adobe Illustrator 25.0.1, SVG Export Plug-In . SVG Version: 6.00 Build 0)  -->
<svg version="1.1" id="Camada_1" xmlns="http://www.w3.org/2000/svg" xmlns:xlink="http://www.w3.org/1999/xlink" x="0px" y="0px"
	 viewBox="0 0 386 358.4" style="enable-background:new 0 0 386 358.4;" xml:space="preserve">
<style type="text/css">
	.st0{fill:#00A499;}
</style>
<path class="st0" d="M293.1,2.6c-31.3-4.2-62.7,6.4-86,29.1c-1.9,1.9-3.7,3.9-5.7,6.1l-0.2,0.2c-1,1.1-2,2.3-3.2,3.5l-4.7,5.1
	l-4.8-5c-1.6-1.7-3-3.2-4.4-4.7l-0.2-0.2c-2.7-2.9-5.1-5.4-7.5-7.7c-20.1-18.3-42.9-27.6-68-27.6c-6.4,0-12.9,0.6-19.2,1.7
	c-45.7,8-91.9,51.5-87.5,116.4c1.9,27.9,13,52.6,32.9,73.4c8,8.3,15.8,16.6,23.4,24.7l41.2,43.4c28.4,30,56.9,60,85.3,89.9
	c4.5,4.7,7.1,5.7,8.5,5.7c1.9,0,4.6-1.8,7.9-5.3c49.6-52.2,100.7-106,151.8-160c17.2-18.3,27.9-41.2,30.7-66.3
	c2.9-25-2.3-49.7-14.9-71.5C352.2,25.5,324.6,6.9,293.1,2.6z M343.6,178.1L343.6,178.1c-33.4,35.8-67.7,71.8-100.8,106.7l-1.2,1.2
	c-13.5,14.1-26.9,28.3-40.3,42.4c-1,1-2,1.9-3,2.7l-0.1,0.1c-0.5,0.4-1.1,0.9-1.8,1.5l-5.2,4.4l-4.2-5.3c-0.7-0.9-1.3-1.7-1.9-2.6
	c-1-1.5-2.2-2.9-3.4-4.2l-13.3-14C127.3,267.6,87,225.1,46.7,182.8c-16.4-17.3-26.1-37.3-28.8-59.6C12.4,76,43.4,29.6,87.2,19.8
	c30.4-6.8,57.3,0.7,80,22.3c3.7,3.5,7.1,7.1,10.9,11.2l0.6,0.6c2,2.2,4.2,4.4,6.3,6.6c3.4,3.4,6.2,5.2,8.3,5.2c2.2,0,5-1.8,8.6-5.5
	c2.1-2.1,4.1-4.3,6.1-6.4l0.6-0.6c2.7-2.9,5.5-5.9,8.3-8.7c19-19.2,43.6-28.7,69.2-26.8c25.5,1.9,48.3,14.9,64.2,36.6
	C378,92.2,375.2,144.3,343.6,178.1z"/>
</svg>
