<?xml version="1.0" encoding="utf-8"?>
<!-- Generator: Adobe Illustrator 25.0.1, SVG Export Plug-In . SVG Version: 6.00 Build 0)  -->
<svg version="1.1" id="Camada_1" xmlns="http://www.w3.org/2000/svg" xmlns:xlink="http://www.w3.org/1999/xlink" x="0px" y="0px"
	 viewBox="0 0 361.56 361.43" style="enable-background:new 0 0 361.56 361.43;" xml:space="preserve">
<style type="text/css">
	.st0{fill:#00A499;}
</style>
<path class="st0" d="M165.61,88.09c0.78-1.49,1.68-2.92,2.68-4.26c27.76-32.26,62.89-53.29,102.73-67.03
	c25.49-8.94,52.02-14.55,78.95-16.7c8.93-0.68,12.32,2.06,11.47,10.85c-5.71,58.73-22.68,113.26-61.24,159.32
	c-7.88,9.41-17.23,17.6-26.28,26.73c1.67,4.06,3.58,8.26,5.14,12.59c6.32,17.44,3.37,33.53-7.71,48.14
	c-11.42,15.05-27.11,24.2-44.66,29.97c-8.82,2.9-18.22,4.16-27.44,5.68c-3.95,0.65-8.36,0.91-10.84-3.71
	c-2.57-4.78,0.72-7.76,3.35-10.84c6.19-7.18,9.83-16.2,10.35-25.67c0.22-3.35-0.45-6.77-0.77-10.89
	c-16.46,3.59-30.47,13.27-47.49,11.38c-0.13,0.08-0.84,0.28-1.07,0.72c-8.96,17.73-23.77,28.02-42.6,32.69
	c-10.79,2.68-21.73,4.75-32.76,6.2c-7.31,0.96-10.71-2.83-9.53-9.85c1.9-11.26,3.86-22.58,6.83-33.59
	c4.95-18.35,15.09-33.03,33.16-41.2c-2.26-17.35,7.25-31.79,11.25-48.09c-12.45-2.98-22.77-0.13-32.45,6.1
	c-1.93,1.34-3.77,2.8-5.51,4.38c-2.91,2.45-6.16,3.72-9.72,1.85c-3.57-1.88-4.35-5.38-3.95-9.1c0.4-4.68,1.04-9.33,1.91-13.95
	c3.76-17.77,10.75-34.07,22.35-48.24c17.61-21.51,42.55-28.71,68.45-15.64C161.48,86.56,162.86,86.99,165.61,88.09z M137.03,158.3
	c22.18,22.68,43.7,44.68,64.76,66.22c61-27.31,108.21-74.88,125.78-131.91l-58.69-59.34C206.72,55.12,165.34,99.29,137.03,158.3
	L137.03,158.3z M84.18,150.63c14.63-6.1,28.29-7.5,41.38-4.44c9.77-15.93,19.08-31.08,28.38-46.23c-11.58-8.9-30.68-8.04-43.68,3.55
	c-10.57,9.43-17.53,21.15-22.26,34.31C86.65,141.57,85.7,145.47,84.18,150.63L84.18,150.63z M261.67,207.32l-46.45,28.55
	c4.2,13.63,0.94,27.12-3.94,41.23c18.85-4.69,34.41-12.26,46.52-25.9C266.98,240.88,272.47,224.92,261.67,207.32L261.67,207.32z
	 M141.38,243.26c-4.91-4.84-9.32-9.14-13.69-13.49c-11.17-11.14-12.72-11.22-24.83-0.49c-2.23,1.91-4.2,4.1-5.85,6.53
	c-8.15,12.51-11.02,26.64-13.38,42.22c12.46-2.09,23.47-4.56,34.02-9.09C129.15,264.02,136.43,255.34,141.38,243.26z M285.91,28.15
	l47.91,47.83c6.17-20.93,10.88-40.28,12.05-60.54C327.2,16.62,298.45,22.69,285.91,28.15L285.91,28.15z M130.62,172.51
	c-3.15,10.02-6.11,18.46-8.28,27.11c-0.49,1.94,1.23,5.11,2.87,6.81c9.75,10.1,19.81,19.9,29.68,29.88c2.54,2.56,5.46,3.49,8.77,2.5
	c7.91-2.38,15.76-4.97,25.92-8.2C169.33,210.65,150.65,192.25,130.62,172.51z"/>
<path class="st0" d="M63.13,245.92c-1.7,2.83-2.63,5.36-4.36,7.11c-15,15.2-30.1,30.3-45.3,45.3c-4.37,4.29-8.34,4.22-11.53,0.77
	c-2.81-3.04-2.68-7.02,1.15-10.9c15.21-15.41,30.51-30.71,45.92-45.92c2.35-2.33,5.33-4.2,8.63-2.08
	C59.64,241.5,61.05,243.71,63.13,245.92z"/>
<path class="st0" d="M68.21,361.43c-6.5-0.32-9.74-5.59-7.4-10.28c1.19-2,2.69-3.81,4.45-5.35c13.62-13.68,27.26-27.34,40.93-40.97
	c1.41-1.48,2.93-2.85,4.55-4.1c2.6-2.18,6.45-1.99,8.82,0.44c3.05,2.76,3.2,6.09,1.04,9.48c-0.83,1.2-1.78,2.32-2.84,3.32
	c-14.26,14.29-28.48,28.6-42.86,42.77C72.73,358.9,69.83,360.32,68.21,361.43z"/>
<path class="st0" d="M11.85,361.41c-6.47-0.2-9.78-5.44-7.56-10.16c0.99-1.79,2.27-3.39,3.79-4.75
	c14.03-14.09,28.1-28.15,42.2-42.19c5.95-5.91,9.74-6.56,13.39-2.62c3.22,3.47,2.41,7.47-2.91,12.83
	c-14.02,14.11-28.1,28.16-42.23,42.15C16.34,358.82,13.47,360.28,11.85,361.41z"/>
<path class="st0" d="M72.9,195.83c-1.21,2.45-1.73,4.6-3.05,5.98c-6.28,6.57-12.64,13.09-19.26,19.32
	c-3.74,3.52-8.08,3.29-10.93,0.18c-2.74-2.99-2.82-6.47,0.69-10.21c6.22-6.63,12.61-13.13,19.4-19.17c1.78-1.59,5.51-2.14,7.92-1.52
	C69.7,190.95,71.12,193.87,72.9,195.83z"/>
<path class="st0" d="M163.39,289.59c6.25-0.07,9.53,4.14,8.05,8.87c-0.58,1.64-1.52,3.14-2.75,4.36c-5.91,6.06-11.81,12.16-18,17.93
	c-3.93,3.67-7.85,3.58-10.86,0.5c-3-3.07-2.93-6.77,0.86-10.79c5.81-6.16,11.85-12.1,17.97-17.96
	C160.09,291.34,161.69,290.36,163.39,289.59z"/>
<path class="st0" d="M254.43,142.06c-19.36,0.19-35.21-15.35-35.4-34.71c0-0.14,0-0.28,0-0.41c-0.03-19.58,15.81-35.48,35.39-35.51
	s35.48,15.81,35.51,35.39c0,0.12,0,0.24,0,0.36C289.76,126.91,274.28,142.13,254.43,142.06z M275.34,106.86
	c-0.09-11.38-9.19-20.64-20.57-20.95c-11.16-0.16-20.77,9.22-21.03,20.53c-0.28,11.48,8.8,21.02,20.28,21.31
	c11.48,0.28,21.02-8.8,21.31-20.28C275.34,107.26,275.34,107.06,275.34,106.86z"/>
<path class="st0" d="M222,147.1c-0.3,0.77-0.5,2.42-1.4,3.41c-3.64,4.19-7.54,8.13-11.68,11.82c-2.98,2.51-6.67,2.13-9.47-0.89
	c-2.51-2.7-2.78-6.11-0.47-8.81c3.49-4.32,7.45-8.24,11.81-11.69C215.14,137.73,221.68,141.31,222,147.1z"/>
<path class="st0" d="M191.9,177.1c-0.24,3.73-4.05,7.08-7.7,6.78c-3.9-0.51-6.73-3.98-6.44-7.91c0.28-3.66,3.46-6.4,7.12-6.13
	c3.88,0.01,7.03,3.16,7.02,7.05C191.91,176.96,191.91,177.03,191.9,177.1z"/>
</svg>
