<?xml version="1.0" encoding="utf-8"?>
<!-- Generator: Adobe Illustrator 25.0.1, SVG Export Plug-In . SVG Version: 6.00 Build 0)  -->
<svg version="1.1" id="Camada_1" xmlns="http://www.w3.org/2000/svg" xmlns:xlink="http://www.w3.org/1999/xlink" x="0px" y="0px"
	 viewBox="0 0 362.79 362.83" style="enable-background:new 0 0 362.79 362.83;" xml:space="preserve">
<style type="text/css">
	.st0{fill:#00A499;}
</style>
<path class="st0" d="M74.12,102.57h37.2c39.02,0,78.04,0,117.05,0c2.07,0,4.15-0.13,6.2,0.05c5.02,0.45,7.15,2.15,7.23,7.08
	c0.23,15.66,0.13,31.32,0.08,46.98c-0.01,4.35-2.61,6.4-6.72,6.63c-2.95,0.17-5.91,0.14-8.86,0.14
	c-63.26,0.01-126.51,0.01-189.77,0.01H26.28c-2,7.07-2.3,102.6-0.44,114.53h9.34c40.5,0,80.99,0,121.49,0
	c2.36,0,4.74-0.06,7.09,0.12c3.46,0.28,5.39,2.31,5.51,5.75c0.12,3.41-1.63,5.67-5.01,6.24c-2.05,0.26-4.12,0.34-6.19,0.25
	c-44.93,0.01-89.86,0.01-134.79-0.01c-10.09-0.01-11.05-0.97-11.09-11.25c-0.16-42.84-0.28-85.68-0.38-128.53
	c-0.04-1.77,0.01-3.54,0.15-5.31c0.32-3.31,2.06-5.68,5.45-6.01c3.79-0.36,6.12,1.69,6.87,5.42c0.35,1.72,0.6,3.45,0.97,5.59h23.98
	c-1.05-1.71-2.22-3.33-3.51-4.87c-9.57-9.66-19.39-19.07-28.72-28.94c-2.72-3.01-4.72-6.59-5.85-10.48
	C7.62,94.1,4.66,82.06,1.47,70.08c-0.3-1.14-0.7-2.26-0.92-3.42c-1.38-7.12-0.48-8.97,6.57-10.93c16.76-4.65,33.59-9.03,50.39-13.53
	c51.25-13.74,102.5-27.49,153.74-41.25c7.54-2.03,9.43-1.24,11.57,6.27c3.8,13.33,7.36,26.73,10.89,40.14
	c2.2,8.38,1.08,10.26-7.48,12.58c-28.46,7.7-56.93,15.36-85.41,22.96c-20.5,5.49-41.03,10.91-61.53,16.4
	c-1.9,0.51-3.71,1.31-5.56,1.98C73.86,101.72,73.99,102.15,74.12,102.57z M133.17,150.66c0.17-0.64,0.35-1.28,0.52-1.92
	c-10.4-10.4-20.8-20.78-31.22-31.16c-1.01-1-2.37-2.32-3.58-2.34c-7.08-0.11-14.25-1.22-22.29,0.85
	c11.2,11.17,21.56,21.61,32.09,31.89c1.43,1.42,3.29,2.32,5.29,2.55C120.36,150.85,126.77,150.66,133.17,150.66z M35.7,114.98
	c-0.29,0.66-0.59,1.32-0.88,1.98c10.46,10.34,20.92,20.68,31.39,31c1.02,1,2.32,2.32,3.55,2.38c7.12,0.33,14.3,1.14,22.94-0.73
	c-11.52-11.37-21.9-21.77-32.49-31.93c-1.72-1.51-3.88-2.42-6.17-2.58C47.94,114.76,41.81,114.98,35.7,114.98L35.7,114.98z
	 M31.71,99.04c7.22-1.94,12.5-3.7,17.92-4.69c4.23-0.78,6.59-3.03,8.59-6.61c6-10.78,12.3-21.4,18.43-32.11
	c0.93-1.62,1.54-3.43,2.76-6.19c-7.08,1.88-13.04,3.25-18.85,5.12c-2.16,0.68-4.03,2.06-5.32,3.92
	C47.56,71.32,40.18,84.34,31.71,99.04L31.71,99.04z M120.78,38.89c-22.35,4.27-22.35,4.28-32.35,21.67
	c-1.91,3.32-3.86,6.61-5.76,9.93c-3.01,5.27-5.99,10.56-9.85,17.37c7.94-2,14.19-3.37,20.29-5.22c1.91-0.69,3.53-2.02,4.58-3.75
	C105.3,65.97,112.71,52.93,120.78,38.89L120.78,38.89z M154.44,66.1c6.73-1.76,11.41-3.27,16.2-4.16c4.68-0.68,8.71-3.67,10.72-7.96
	c4.65-8.82,9.86-17.35,14.82-26.01c1.84-3.2,3.65-6.42,6.53-11.48c-7.08,1.82-12.05,3.33-17.12,4.32c-4.09,0.69-7.58,3.33-9.37,7.06
	c-4.91,9.02-10.17,17.85-15.28,26.76C159.1,57.84,157.29,61.07,154.44,66.1L154.44,66.1z M162.05,27.3
	c-8.35,2.25-14.79,3.9-21.16,5.77c-1.39,0.41-2.6,1.29-3.41,2.49c-7.7,13.15-15.26,26.37-23.93,41.43
	c8.4-2.19,14.86-3.77,21.24-5.62c1.39-0.48,2.57-1.44,3.33-2.69C145.81,55.55,153.39,42.33,162.05,27.3L162.05,27.3z M219.1,149.6
	c-11.5-11.48-22.22-22.23-33.04-32.88c-1.07-0.98-2.44-1.55-3.89-1.63c-6.58-0.16-13.16-0.08-19.74-0.08
	c6.51,8.79,13.51,15.8,20.52,22.81c13.95,13.95,13.95,13.95,33.72,12.63C217.49,150.21,218.31,149.93,219.1,149.6L219.1,149.6z
	 M176.97,149.77c-11.66-11.65-22.36-22.39-33.16-33.03c-1.07-0.99-2.44-1.57-3.89-1.66c-6.6-0.17-13.2-0.08-19.8-0.08
	c6.43,8.69,13.42,15.69,20.41,22.68c13.93,13.92,13.94,13.92,33.67,12.79C174.48,150.46,174.76,150.34,176.97,149.77L176.97,149.77z
	 M206.35,115.18l22.24,24.59v-24.59L206.35,115.18z M20.75,92.59c6.51-11.28,12.09-20.95,18.78-32.53l-25.75,6.99
	C16.15,75.72,18.19,83.19,20.75,92.59z M195.13,55.28l25.69-6.95l-6.95-25.6C207.25,34.23,201.69,43.89,195.13,55.28z"/>
<path class="st0" d="M309.2,338.49v11.4c2.29,0.22,4.53,0.61,6.77,0.62c10.05,0.07,20.1,0.02,30.15,0.04
	c2.06,0.01,4.54-0.52,6.09,0.42c1.97,1.2,4.37,3.63,4.38,5.53c0.01,1.96-2.28,4.6-4.25,5.69c-1.85,1.02-4.61,0.5-6.96,0.5
	c-48.77,0.02-97.54,0.02-146.31,0c-2.36,0.1-4.72-0.03-7.05-0.39c-2.98-0.6-4.93-3.05-4.27-5.78c0.76-2.38,2.4-4.38,4.59-5.58
	c1.89-0.98,4.62-0.39,6.98-0.4c11.76-0.02,23.53-0.01,35.87-0.01v-12.06c-8.4,0-16.57,0.07-24.73-0.03
	c-3.83-0.05-7.78,0.11-11.45-0.77c-10.1-2.6-17.26-11.57-17.55-22c-0.33-20.09-0.22-40.18-0.11-60.27c0.03-5.23,2.6-7.88,6.58-7.48
	c4.42,0.45,5.81,3.43,5.81,7.45c0.01,17.14,0.03,34.27,0.06,51.41c-0.1,2.66-0.06,5.32,0.12,7.97c0.72,6.6,5,10.67,11.55,11.2
	c1.76,0.14,3.55,0.06,5.32,0.06c40.79,0,81.58,0,122.37,0c12.83,0,13.18-0.23,17.47-12.57c1.22-3.51,3.33-5.7,7.16-5.12
	c4.01,0.61,4.85,3.65,4.92,7.23c0.23,11.48-9.53,22.05-21.6,22.76c-7.07,0.41-14.18,0.14-21.28,0.16
	C316.64,338.5,313.42,338.49,309.2,338.49z M248.8,350.03h46.91v-10.87H248.8V350.03z"/>
<path class="st0" d="M362.75,257.96c0,8.86,0,17.72,0,26.57c0,2.07,0.01,4.14-0.17,6.19c-0.26,3.01-1.89,4.94-4.98,5.26
	c-3.39,0.35-5.91-1.18-6.69-4.46c-0.48-2.61-0.67-5.26-0.56-7.91c-0.08-16.83-0.03-33.66-0.14-50.49
	c-0.08-11.41-4.02-15.25-15.49-15.4c-2.66-0.04-5.32,0.04-7.98-0.02c-13.33-0.3-22.8-8.76-24.66-21.97
	c-1.6-11.37-4.14-13.76-15.16-13.86c-10.34-0.09-20.68-0.13-31.02,0.02c-9.2,0.13-12.59,3.3-13.92,12.48
	c-2.3,15.9-10.71,23.24-26.76,23.34c-2.36,0.02-4.73-0.05-7.09,0.02c-8.66,0.25-12.07,2.97-14.36,11.35
	c-1.47,5.37-3.65,7.22-7.59,6.44c-3.75-0.74-5.34-3.74-4.79-9.08c1.13-11.02,11.17-20.36,22.82-21.03c4.12-0.23,8.28,0.08,12.4-0.11
	c7.82-0.35,11.63-3.99,12.72-11.85c2.28-16.46,10.59-24.06,27.02-24.35c10.34-0.18,20.68-0.16,31.02-0.01
	c16.66,0.25,24.83,7.55,27.19,23.99c1.18,8.21,5.22,11.92,13.48,12.23c3.24,0.12,6.5-0.03,9.75,0.04
	c15.05,0.31,24.66,9.92,24.93,25.13C362.87,239.65,362.74,248.81,362.75,257.96z"/>
<path class="st0" d="M331.21,110.78c-5.65,8.91-13.56,10.91-22.64,10.68c-9.14-0.24-18.29,0.07-27.43-0.09
	c-14.55-0.26-21.53-7.4-21.66-21.94c-0.05-5.9-0.07-11.79-0.01-17.69c0.15-14.41,7.32-21.48,21.96-21.58
	c9.14-0.07,18.29,0.23,27.42-0.08c9.17-0.31,16.95,1.9,22.2,10.83c4.93-1.23,9.69-2.55,14.51-3.58c8.36-1.8,11.08,0.22,11.2,8.49
	c0.14,10.02,0.15,20.04,0.02,30.07c-0.1,7.94-2.85,10.09-10.43,8.52c-2.59-0.54-5.14-1.28-7.71-1.9
	C336.38,111.95,334.11,111.45,331.21,110.78z M296.19,108.46c5.6,0,11.22,0.23,16.8-0.07c5.31-0.29,6.62-1.71,6.79-7.16
	c0.21-6.77,0.18-13.56,0-20.33c-0.16-6.17-1.77-8.01-7.86-8.15c-10.61-0.25-21.22-0.25-31.84,0.01c-5.63,0.13-7.62,2.05-7.84,7.41
	c-0.29,7.06-0.28,14.15,0.03,21.21c0.22,5.23,1.81,6.73,7.11,7C284.98,108.67,290.59,108.45,296.19,108.46L296.19,108.46z
	 M343.72,100.56v-19.7l-10.76,2.93c-0.14,2.76-0.4,5.07-0.33,7.37c0.06,2.25,0.45,4.49,0.71,6.8L343.72,100.56z"/>
<path class="st0" d="M272.29,229.7c23.23-0.14,42.18,18.59,42.31,41.82c0,0.08,0,0.15,0,0.23c0.12,23.67-19.17,43.11-42.59,42.93
	c-23.02-0.18-42.41-19.46-42.59-42.35C229.24,248.87,248.55,229.66,272.29,229.7z M302.01,272.03
	c0.13-16.28-12.96-29.59-29.24-29.72c-0.13,0-0.26,0-0.39,0c-16.88-0.07-30.56,13.57-30.22,30.15c0.32,16.42,13.8,29.53,30.23,29.39
	c16.37-0.01,29.63-13.28,29.62-29.65C302.01,272.14,302.01,272.09,302.01,272.03z"/>
<path class="st0" d="M96.34,217.45c0-9.14-0.17-18.28,0.05-27.41c0.19-8.09,4.23-10.66,11.48-7.12
	c18.77,9.18,37.45,18.54,56.04,28.08c2.46,1.41,4.31,3.7,5.16,6.41c1,3.76-2.36,5.63-5.34,7.12c-18.43,9.22-36.82,18.5-55.32,27.55
	c-7.86,3.84-11.8,1.4-11.98-7.22c-0.19-9.13-0.04-18.27-0.04-27.41H96.34z M149.18,217.61L109.74,198v39.4L149.18,217.61z"/>
<path class="st0" d="M272.03,205.47c-4.13,0-8.26,0.12-12.39-0.04c-3.42-0.13-5.46-2.07-5.68-5.54c-0.22-3.48,1.79-6.18,4.9-6.33
	c8.81-0.43,17.67-0.44,26.49-0.01c3.13,0.15,5.13,2.97,4.82,6.38c-0.29,3.33-2.26,5.43-5.76,5.52
	C280.3,205.55,276.16,205.47,272.03,205.47z"/>
<path class="st0" d="M217.95,302.3c3.29,0,5.95,2.66,5.96,5.95c0,0.08,0,0.15,0,0.23c-0.08,3.39-2.89,6.07-6.28,5.99
	c-3.39-0.08-6.07-2.89-5.99-6.28c0-0.02,0-0.04,0-0.06C211.77,304.77,214.59,302.16,217.95,302.3z"/>
<path class="st0" d="M253.9,272.31c-0.12-10.07,8.29-18.76,18.19-18.79c9.83-0.03,18.6,8.8,18.52,18.66
	c-0.22,9.85-8.09,17.81-17.94,18.15c-10.1,0.27-18.5-7.71-18.77-17.8C253.9,272.45,253.9,272.38,253.9,272.31z M279.82,272.15
	c-3.46-2.6-5.33-4.85-7.66-5.54c-2.68-0.8-5.81,2.52-5.65,5.37c0.2,3.39,2.36,5.93,5.52,5.53
	C274.31,277.22,276.29,274.7,279.82,272.15L279.82,272.15z"/>
</svg>
